<svg xmlns="http://www.w3.org/2000/svg" viewBox="0 0 24 24"><path d="M5.5 16.25c-.827 0-1.5-.673-1.5-1.5V7.14L.758 6.33A.998.998 0 010 5.36v-.61c0-.827.673-1.5 1.5-1.5H4c.551 0 1 .449 1 1v10.5a.5.5 0 00.5.5H7v-5.5c0-.827.673-1.5 1.5-1.5h5c.691 0 1.275.47 1.448 1.108.175-.071.361-.108.552-.108h6c.827 0 1.5.673 1.5 1.5v4.5h.5a.5.5 0 010 1h-18zm16.5-1v-4.5a.5.5 0 00-.5-.5h-6a.5.5 0 00-.5.5v4.5h7zm-8 0v-5.5a.5.5 0 00-.5-.5h-5a.5.5 0 00-.5.5v5.5h6zm-12.5-11a.5.5 0 00-.5.5v.61l3 .75V4.25H1.5zM6 20.75c-1.103 0-2-.897-2-2s.897-2 2-2 2 .897 2 2-.897 2-2 2zm0-3a1.001 1.001 0 000 2 1.001 1.001 0 000-2zM22 20.75c-1.103 0-2-.897-2-2s.897-2 2-2 2 .897 2 2-.897 2-2 2zm0-3a1 1 0 100 2 1 1 0 000-2z"/><path d="M11.5 14.25a.5.5 0 010-1h1a.5.5 0 010 1h-1zM19.5 14.25a.5.5 0 010-1h1a.5.5 0 010 1h-1zM18.5 8.25a.5.5 0 01-.5-.5v-3a.5.5 0 00-.5-.5h-5a.5.5 0 00-.5.5v2a.5.5 0 01-1 0v-2c0-.827.673-1.5 1.5-1.5h5c.827 0 1.5.673 1.5 1.5v3a.5.5 0 01-.5.5z"/></svg>