<svg xmlns="http://www.w3.org/2000/svg" viewBox="0 0 512 512" xml:space="preserve"><path d="M385.5 93.7c6.2 0 11.3-5.1 11.3-11.3V46.7c0-13.6-11.1-24.7-24.7-24.7H133.2c-3 0-5.9 1.2-8 3.3l-93.6 93.6c-2.1 2.1-3.3 5-3.3 8v338.4c0 13.6 11.1 24.7 24.7 24.7h319.1c13.6 0 24.7-11.1 24.7-24.7V292.8c0-6.2-5.1-11.3-11.3-11.3-6.2 0-11.3 5.1-11.3 11.3v172.4c0 1.2-.9 2.1-2.1 2.1h-319c-1.2 0-2.1-.9-2.1-2.1v-327h68.9c13.6 0 24.7-11.1 24.7-24.7V44.6h227.6c1.2 0 2.1.9 2.1 2.1v35.6c-.1 6.3 5 11.4 11.2 11.4zm-263.6 19.8c0 1.2-.9 2.1-2.1 2.1H66.9l55-55v52.9z"/><path d="m472.5 113.8-13.3-13.3c-14.9-14.9-39.1-14.9-54 0L299.7 206h-183c-6.2 0-11.3 5.1-11.3 11.3 0 6.2 5.1 11.3 11.3 11.3h160.4l-68 68h-92.4c-6.2 0-11.3 5.1-11.3 11.3 0 6.2 5.1 11.3 11.3 11.3h69.8l-.2.2c-1.4 1.4-2.4 3.1-2.9 5L166 387.1h-49.3c-6.2 0-11.3 5.1-11.3 11.3 0 6.2 5.1 11.3 11.3 11.3h57.9s2.5-.3 2.8-.4c.1 0 71.3-19.8 71.3-19.8 1.9-.5 3.6-1.5 5-2.9l218.8-218.8c14.9-14.9 14.9-39.1 0-54zM190.8 382.2 200 349l24 24-33.2 9.2zm54.9-19.5-35.4-35.4 180.6-180.6 35.4 35.4-180.6 180.6zm210.8-210.8-14.2 14.2-35.4-35.4 14.2-14.2c6.1-6.1 16-6.1 22.1 0l13.3 13.3c6.1 6.1 6.1 16 0 22.1z"/></svg>