<svg xmlns="http://www.w3.org/2000/svg" viewBox="0 0 24 24"><path d="M1.5 24C.673 24 0 23.327 0 22.5v-17C0 4.673.673 4 1.5 4H3V1.5C3 .673 3.673 0 4.5 0h18c.827 0 1.5.673 1.5 1.5v18c0 .827-.673 1.5-1.5 1.5H20v1.5c0 .827-.673 1.5-1.5 1.5h-17zm0-19a.5.5 0 00-.5.5v17a.5.5 0 00.5.5h17a.5.5 0 00.5-.5V21H4.5c-.827 0-1.5-.673-1.5-1.5V5H1.5zM4 19.5a.5.5 0 00.5.5h18a.5.5 0 00.5-.5V17H4v2.5zM23 16V1.5a.5.5 0 00-.5-.5h-18a.5.5 0 00-.5.5V16h4.217l2.492-4.153a1 1 0 011.626-.125l1.62 1.944 3.087-4.629a.989.989 0 01.479-.381 1.006 1.006 0 011.289.581L21.347 16H23zm-2.722 0l-2.404-6.411-3.459 5.188a.505.505 0 01-.389.222h-.002a.513.513 0 01-.409-.179l-2.05-2.459L9.383 16h10.895z"/><path d="M10 8c-1.103 0-2-.897-2-2s.897-2 2-2 2 .897 2 2-.897 2-2 2zm0-3c-.551 0-1 .449-1 1s.449 1 1 1 1-.449 1-1-.449-1-1-1z"/></svg>