<svg xmlns="http://www.w3.org/2000/svg" viewBox="0 0 24 24"><path d="M2.5 20.5A2.503 2.503 0 010 18V6c0-1.379 1.121-2.5 2.5-2.5h19C22.878 3.5 24 4.621 24 6v12c0 1.378-1.122 2.5-2.5 2.5h-19zM1 18c0 .827.673 1.5 1.5 1.5h19c.827 0 1.5-.673 1.5-1.5V8.5H1V18zM23 7.5V6c0-.827-.673-1.5-1.5-1.5h-19C1.673 4.5 1 5.173 1 6v1.5h22z"/><path d="M13.5 12.5a.5.5 0 010-1h8a.5.5 0 010 1h-8zM13.5 15.5a.5.5 0 010-1h3a.5.5 0 010 1h-3zM5.75 17.5a.75.75 0 01-.75-.75V15.5H3.75a.75.75 0 01-.75-.75v-1.5a.75.75 0 01.75-.75H5v-1.25a.75.75 0 01.75-.75h1.5a.75.75 0 01.75.75v1.25h1.25a.75.75 0 01.75.75v1.5a.75.75 0 01-.75.75H8v1.25a.75.75 0 01-.75.75h-1.5zm1.25-1V15a.5.5 0 01.5-.5H9v-1H7.5A.5.5 0 017 13v-1.5H6V13a.5.5 0 01-.5.5H4v1h1.5a.5.5 0 01.5.5v1.5h1z"/></svg>