<svg xmlns="http://www.w3.org/2000/svg" viewBox="0 0 24 24">
    <path
        d="M17.5 24a6.51 6.51 0 01-6.5-6.5 6.51 6.51 0 016.5-6.5 6.51 6.51 0 016.5 6.5 6.51 6.51 0 01-6.5 6.5zm0-12a5.51 5.51 0 00-5.5 5.5 5.51 5.51 0 005.5 5.5 5.51 5.51 0 005.5-5.5 5.51 5.51 0 00-5.5-5.5zm0 9a.5.5 0 01-.5-.5v-6a.5.5 0 111 0v6a.5.5 0 01-.5.5z" />
    <path
        d="M20.5 18h-6a.5.5 0 110-1h6a.5.5 0 110 1zm-10.493-7.5a.5.5 0 01-.224-.947l9.494-4.75a.496.496 0 01.486.022.5.5 0 01.237.425V9.5a.5.5 0 11-1 0V6.06l-8.77 4.388a.497.497 0 01-.223.053z" />
    <path
        d="M9.5 20a.49.49 0 01-.242-.063l-9-5A.5.5 0 010 14.5V5.25a.5.5 0 01.237-.425.496.496 0 01.486-.022l9.494 4.75a.5.5 0 11-.447.895L1 6.06v8.146l8.743 4.857A.5.5 0 019.5 20z" />
    <path
        d="M19.5 5.75a.5.5 0 01-.223-.053L9.994 1.06.724 5.697a.5.5 0 11-.448-.894L9.77.053a.5.5 0 01.447 0l9.506 4.75a.5.5 0 01-.223.947z" />
    <path
        d="M5.043 11.74a.5.5 0 01-.5-.5V7.52a.5.5 0 01.276-.447l9.494-4.75a.5.5 0 11.447.895L5.543 7.83v3.41a.5.5 0 01-.5.499z" />
    </svg>