<svg xmlns="http://www.w3.org/2000/svg" viewBox="0 0 23 23"><path d="M21.6 9.3h-1.2a1.1 1.1 0 00-1-.8h-1.3v-3a.3.3 0 00-.2-.3L9.3.2h-.4l-8.7 5a.3.3 0 00-.1.3v10a.3.3 0 00.2.3l8.7 5h.3l4.6-2.6v1.9a1.4 1.4 0 001.3 1.4h6.4a1.4 1.4 0 001.4-1.4h0v-9.4a1.4 1.4 0 00-1.4-1.4zm-2.2-.2a.5.5 0 01.5.5h0a.5.5 0 01-.5.5h-1.9a.5.5 0 01-.5-.5h0a.5.5 0 01.5-.5h1.9zM9.1.8l3.6 2.1-8 4.7L1 5.5zM8.8 20L.7 15.4V6l8.1 4.7zm.3-9.9L5.3 8l8.1-4.7 3.8 2.2zm4.7.6v6.8L9.4 20v-9.3l8-4.7v2.5h0a1.1 1.1 0 00-1.1.8h-1.1a1.4 1.4 0 00-1.4 1.4zm8.5 9.4a.7.7 0 01-.7.7h-6.4a.7.7 0 01-.7-.7h0v-9.4a.7.7 0 01.7-.8h1.2a1.1 1.1 0 001.1.8h1.9a1.1 1.1 0 001.1-.8h1.2a.8.8 0 01.7.8zM15.6 14h.4a.3.3 0 000-.6h0v-.9h.9a.3.3 0 00.3.2.3.3 0 00.3-.3v-.2a.3.3 0 00-.3-.3h-1.6a.3.3 0 00-.3.3h0v1.5a.3.3 0 00.3.3h0zm0 3h1.5a.3.3 0 00.3-.3v-1.6a.3.3 0 00-.3-.3h-1.5a.3.3 0 00-.3.3v1.5a.3.3 0 00.3.4zm.3-1.5h.9v.9h-.9zm0 3.9h0v-.9h.9a.35.35 0 00.7 0v-.3a.3.3 0 00-.3-.3h-1.6a.3.3 0 00-.3.3v1.5a.3.3 0 00.3.3h.4a.3.3 0 000-.6z" stroke="#000" stroke-miterlimit="10" stroke-width=".2"/><path d="M17.9 12.2l-1 1-.3-.3a.354.354 0 10-.5.5l.5.5a.3.3 0 00.5 0l1.2-1.2a.354.354 0 10-.5-.5zm0 6l-1 1-.3-.3a.354.354 0 00-.5.5l.5.5a.3.3 0 00.5 0l1.2-1.2a.354.354 0 10-.5-.5zm3.3-5.6h-2a.3.3 0 000 .6h2a.3.3 0 000-.6zm0 3h-2a.3.3 0 000 .6h2a.3.3 0 000-.6zm0 3h-2a.3.3 0 000 .6h2a.3.3 0 000-.6z"/></svg>