<svg xmlns="http://www.w3.org/2000/svg" viewBox="0 0 24 24"><path d="M5.5 23.724c-.551 0-1-.448-1-1v-6c0-.552.449-1 1-1h2v-6c0-.551.449-1 1-1h6c.552 0 1 .449 1 1v6h3a1 1 0 011 1v6a1 1 0 01-1 1h-13zm13-1v-6h-1v2a1 1 0 01-1 1h-2a1 1 0 01-1-1v-2h-1v6h6zm-13 0h6v-6h-1v2c0 .552-.449 1-1 1h-2c-.551 0-1-.448-1-1v-2h-1v6zm9-4h2v-2h-2v2zm-7 0h2v-2h-2v2zm7-3v-6h-1v2c0 .551-.448 1-1 1h-2c-.551 0-1-.449-1-1v-2h-1v6h6zm-4-4h2v-2h-2v2z"/><path d="M22 19.724a.5.5 0 01-.5-.5v-12.5h-19v12.5a.5.5 0 01-1 0v-12.5c-.551 0-1-.449-1-1V4.599a1.004 1.004 0 01.708-.961L11.542.345a1.501 1.501 0 01.91 0l10.357 3.289c.415.138.691.52.691.952v1.138c0 .551-.448 1-1 1v12.5a.5.5 0 01-.5.5zM11.997 1.274a.487.487 0 00-.151.024L1.506 4.593 1.5 5.724h21V4.585L12.149 1.298a.498.498 0 00-.152-.024z"/></svg>