<svg xmlns="http://www.w3.org/2000/svg" viewBox="0 0 24 24"><path d="M6 24a2.503 2.503 0 01-2.5-2.5V11c0-.451.301-.834.712-.958L3.053 7.724a.38.38 0 01-.026-.071l-.01-.03a.232.232 0 01-.01-.042l-.5-2.999a.5.5 0 01.75-.511l2.5 1.5c.042.025.08.057.116.099a.208.208 0 01.065.088L8.294 10H8.5V1c0-.551.449-1 1-1h3c.552 0 1 .449 1 1v9h.206l2.257-4.054a2.046 2.046 0 01-.386-2.316c.112-.27.316-.527.532-.8.528-.666.909-1.147.354-1.992a.501.501 0 01.534-.76c1.449.35 2.473 1.371 2.811 2.801.3 1.269-.048 2.626-.845 3.3a1.91 1.91 0 01-.961.436l-1.287 3.408c.448.099.785.499.785.977v1h.5c1.93 0 3.5 1.57 3.5 3.5S19.93 19 18 19h-.5v2.5c0 1.378-1.122 2.5-2.5 2.5H6zm-1.5-2.5c0 .827.673 1.5 1.5 1.5h9c.827 0 1.5-.673 1.5-1.5V11h-12v10.5zM18 18c1.378 0 2.5-1.122 2.5-2.5S19.379 13 18 13h-.5v5h.5zm-2.346-8l1.312-3.473a3.083 3.083 0 01-.153-.053L14.851 10h.803zM12.5 10V9H12a.5.5 0 010-1h.5V7H11a.5.5 0 010-1h1.5V5H12a.5.5 0 010-1h.5V3H11a.5.5 0 010-1h1.5V1h-3v9h3zm-5.35 0L5.341 6.744l-1.207.906L5.309 10H7.15zM3.858 6.607l.747-.56-.934-.56.187 1.12zm13.081-1.169c.011.007.022.015.034.021.035.017.07.031.105.044.228.096.429.141.613.141a.947.947 0 00.627-.229c.513-.434.731-1.404.518-2.306a2.691 2.691 0 00-1.107-1.639c.056.856-.468 1.516-.835 1.98-.172.217-.334.422-.404.588a1.053 1.053 0 00.322 1.319.32.32 0 01.108.068l.019.013z"/></svg>